<svg xmlns="http://www.w3.org/2000/svg" x="0px" y="0px"
width="100" height="100"
viewBox="0 0 172 172"
style=" fill:#000000;"><g fill="none" fill-rule="nonzero" stroke="none" stroke-width="1" stroke-linecap="butt" stroke-linejoin="miter" stroke-miterlimit="10" stroke-dasharray="" stroke-dashoffset="0" font-family="none" font-weight="none" font-size="none" text-anchor="none" style="mix-blend-mode: normal"><path d="M0,172v-172h172v172z" fill="none"></path><g id="original-icon" fill="#666666" opacity="0" visibility="hidden"><path d="M55.9,21.5c-9.47383,0 -17.2,7.72617 -17.2,17.2c0,9.47383 7.72617,17.2 17.2,17.2c9.47383,0 17.2,-7.72617 17.2,-17.2c0,-9.47383 -7.72617,-17.2 -17.2,-17.2zM55.9,25.8c7.14994,0 12.9,5.75006 12.9,12.9c0,7.14994 -5.75006,12.9 -12.9,12.9c-7.14994,0 -12.9,-5.75006 -12.9,-12.9c0,-7.14994 5.75006,-12.9 12.9,-12.9zM74.49834,27.95c0.7826,1.3502 1.43754,2.78425 1.91484,4.3h69.78682v83.85h-64.5v4.3h66.65h2.15h1.075c1.80775,0 3.225,1.41725 3.225,3.225c0,1.80775 -1.41725,3.225 -3.225,3.225h-69.875v4.3h69.875c3.36971,0 6.1375,-2.30011 7.08408,-5.375h0.44092v-2.15c0,-4.13055 -3.39445,-7.525 -7.525,-7.525h-1.075v-88.15zM36.55,62.35c-8.28682,0 -15.05,6.76318 -15.05,15.05v45.15c0,4.72427 3.87573,8.6 8.6,8.6c1.59671,0 3.01402,-0.56257 4.3,-1.33115v16.38115c-0.01097,0.77537 0.39641,1.49657 1.06613,1.88746c0.66972,0.39088 1.49803,0.39088 2.16775,0c0.66972,-0.39088 1.07709,-1.11209 1.06613,-1.88746v-23.65h-4.3c0,2.40083 -1.89917,4.3 -4.3,4.3c-2.40083,0 -4.3,-1.89917 -4.3,-4.3v-45.15c0,-5.96338 4.78662,-10.75 10.75,-10.75h7.56699c0.9851,1.66974 4.10262,6.45 10.70801,6.45c6.60538,0 9.72291,-4.78026 10.70801,-6.45h9.71699c1.20533,0 2.27255,0.48763 3.05703,1.28076l0.0042,0.0042l16.28457,16.28877l14.16397,-14.16396c0.78097,-0.78118 1.84167,-1.25977 3.04023,-1.25977c2.40083,0 4.3,1.89917 4.3,4.3c0,1.20141 -0.48033,2.26224 -1.25977,3.04023l-17.2,17.2l-0.0042,0.0042c-0.78038,0.77988 -1.83663,1.25557 -3.03603,1.25557c-1.19856,0 -2.25893,-0.4799 -3.04023,-1.25977l-1.52012,-1.51592l-16.93965,-16.93965v71.31533c-0.01097,0.77537 0.39641,1.49657 1.06613,1.88746c0.66972,0.39088 1.49803,0.39088 2.16775,0c0.66972,-0.39088 1.07709,-1.11209 1.06613,-1.88746v-60.93486l11.11953,11.11953l1.52012,1.52012l0.29814,-0.29814c1.27793,0.74804 2.68473,1.29336 4.26221,1.29336c1.9608,0 3.69995,-0.77807 5.15244,-1.89385h0.30234l0.62988,-0.62988l17.1958,-17.1958c1.55547,-1.5526 2.51953,-3.71718 2.51953,-6.08047c0,-4.72427 -3.87573,-8.6 -8.6,-8.6c-2.36184,0 -4.52665,0.96571 -6.08047,2.51953l-11.11953,11.11953l-13.23594,-13.23174l-0.0084,-0.0084c-1.55418,-1.56706 -3.72898,-2.54893 -6.10566,-2.54893h-12.06016l-0.60049,1.16318c0,0 -2.88477,5.28682 -7.76436,5.28682c-4.87958,0 -7.76436,-5.28682 -7.76436,-5.28682l-0.60049,-1.16318zM36.55,79.55c-1.18741,0 -2.15,0.96259 -2.15,2.15c0,1.18741 0.96259,2.15 2.15,2.15c1.18741,0 2.15,-0.96259 2.15,-2.15c0,-1.18741 -0.96259,-2.15 -2.15,-2.15zM36.55,88.15c-1.18741,0 -2.15,0.96259 -2.15,2.15c0,1.18741 0.96259,2.15 2.15,2.15c1.18741,0 2.15,-0.96259 2.15,-2.15c0,-1.18741 -0.96259,-2.15 -2.15,-2.15zM36.55,96.75c-1.18741,0 -2.15,0.96259 -2.15,2.15c0,1.18741 0.96259,2.15 2.15,2.15c1.18741,0 2.15,-0.96259 2.15,-2.15c0,-1.18741 -0.96259,-2.15 -2.15,-2.15zM36.55,105.35c-1.18741,0 -2.15,0.96259 -2.15,2.15c0,1.18741 0.96259,2.15 2.15,2.15c1.18741,0 2.15,-0.96259 2.15,-2.15c0,-1.18741 -0.96259,-2.15 -2.15,-2.15zM36.55,113.95c-1.18741,0 -2.15,0.96259 -2.15,2.15c0,1.18741 0.96259,2.15 2.15,2.15c1.18741,0 2.15,-0.96259 2.15,-2.15c0,-1.18741 -0.96259,-2.15 -2.15,-2.15zM51.6,133.51416c-1.18736,0.00012 -2.14988,0.96264 -2.15,2.15v10.53584c-0.01097,0.77537 0.39641,1.49657 1.06613,1.88746c0.66972,0.39088 1.49803,0.39088 2.16775,0c0.66972,-0.39088 1.07709,-1.11209 1.06613,-1.88746v-8.38584h4.3v8.38584c-0.01097,0.77537 0.39641,1.49657 1.06613,1.88746c0.66972,0.39088 1.49803,0.39088 2.16775,0c0.66972,-0.39088 1.07709,-1.11209 1.06613,-1.88746v-10.53584c-0.00012,-1.18736 -0.96264,-2.14988 -2.15,-2.15z"></path></g><g id="subtracted-icon" fill="#666666"><path d="M73.1,38.7c0,9.47383 -7.72617,17.2 -17.2,17.2c-9.47383,0 -17.2,-7.72617 -17.2,-17.2c0,-9.47383 7.72617,-17.2 17.2,-17.2c9.47383,0 17.2,7.72617 17.2,17.2zM43,38.7c0,7.14994 5.75006,12.9 12.9,12.9c7.14994,0 12.9,-5.75006 12.9,-12.9c0,-7.14994 -5.75006,-12.9 -12.9,-12.9c-7.14994,0 -12.9,5.75006 -12.9,12.9zM150.5,27.95l0,73.16062c-1.39839,-0.49585 -2.83349,-0.91345 -4.3,-1.24751v-67.61312h-69.78682c-0.4773,-1.51575 -1.13224,-2.9498 -1.91484,-4.3zM81.7,131.15v-4.3h18.71879c-0.40613,1.40245 -0.73487,2.83743 -0.98127,4.3zM81.7,120.4v-4.3l23.73613,0c-0.9214,1.37389 -1.75719,2.80979 -2.49965,4.3zM46.46016,62.35l0.60049,1.16318c0,0 2.88477,5.28682 7.76436,5.28682c4.87958,0 7.76436,-5.28682 7.76436,-5.28682l0.60049,-1.16318h12.06016c2.37669,0 4.55148,0.98187 6.10566,2.54893l0.0084,0.0084l13.23594,13.23174l11.11953,-11.11953c1.55382,-1.55382 3.71863,-2.51953 6.08047,-2.51953c4.72427,0 8.6,3.87573 8.6,8.6c0,2.36329 -0.96406,4.52787 -2.51953,6.08047l-17.82568,17.82568h-0.30234c-1.45249,1.11577 -3.19164,1.89385 -5.15244,1.89385c-1.57748,0 -2.98428,-0.54532 -4.26221,-1.29336l-0.29814,0.29814l-12.63965,-12.63965v60.93486c0.01097,0.77537 -0.39641,1.49657 -1.06613,1.88746c-0.66972,0.39088 -1.49803,0.39088 -2.16775,0c-0.66972,-0.39088 -1.07709,-1.11209 -1.06613,-1.88746v-71.31533l16.93965,16.93965l1.52012,1.51592c0.7813,0.77987 1.84167,1.25977 3.04023,1.25977c1.19941,0 2.25565,-0.47568 3.03603,-1.25557l0.0042,-0.0042l17.2,-17.2c0.77944,-0.778 1.25977,-1.83882 1.25977,-3.04023c0,-2.40083 -1.89917,-4.3 -4.3,-4.3c-1.19856,0 -2.25926,0.47858 -3.04023,1.25977l-14.16397,14.16396l-16.28457,-16.28877l-0.0042,-0.0042c-0.78448,-0.79313 -1.8517,-1.28076 -3.05703,-1.28076h-9.71699c-0.9851,1.66974 -4.10262,6.45 -10.70801,6.45c-6.60538,0 -9.72291,-4.78026 -10.70801,-6.45h-7.56699c-5.96338,0 -10.75,4.78662 -10.75,10.75v45.15c0,2.40083 1.89917,4.3 4.3,4.3c2.40083,0 4.3,-1.89917 4.3,-4.3h4.3v23.65c0.01097,0.77537 -0.39641,1.49657 -1.06613,1.88746c-0.66972,0.39088 -1.49803,0.39088 -2.16775,0c-0.66972,-0.39088 -1.07709,-1.11209 -1.06613,-1.88746v-16.38115c-1.28598,0.76859 -2.70329,1.33115 -4.3,1.33115c-4.72427,0 -8.6,-3.87573 -8.6,-8.6v-45.15c0,-8.28682 6.76318,-15.05 15.05,-15.05zM38.7,81.7c0,1.18741 -0.96259,2.15 -2.15,2.15c-1.18741,0 -2.15,-0.96259 -2.15,-2.15c0,-1.18741 0.96259,-2.15 2.15,-2.15c1.18741,0 2.15,0.96259 2.15,2.15zM38.7,90.3c0,1.18741 -0.96259,2.15 -2.15,2.15c-1.18741,0 -2.15,-0.96259 -2.15,-2.15c0,-1.18741 0.96259,-2.15 2.15,-2.15c1.18741,0 2.15,0.96259 2.15,2.15zM38.7,98.9c0,1.18741 -0.96259,2.15 -2.15,2.15c-1.18741,0 -2.15,-0.96259 -2.15,-2.15c0,-1.18741 0.96259,-2.15 2.15,-2.15c1.18741,0 2.15,0.96259 2.15,2.15zM38.7,107.5c0,1.18741 -0.96259,2.15 -2.15,2.15c-1.18741,0 -2.15,-0.96259 -2.15,-2.15c0,-1.18741 0.96259,-2.15 2.15,-2.15c1.18741,0 2.15,0.96259 2.15,2.15zM38.7,116.1c0,1.18741 -0.96259,2.15 -2.15,2.15c-1.18741,0 -2.15,-0.96259 -2.15,-2.15c0,-1.18741 0.96259,-2.15 2.15,-2.15c1.18741,0 2.15,0.96259 2.15,2.15zM60.2,133.51416c1.18736,0.00012 2.14988,0.96264 2.15,2.15v10.53584c0.01097,0.77537 -0.39641,1.49657 -1.06613,1.88746c-0.66972,0.39088 -1.49803,0.39088 -2.16775,0c-0.66972,-0.39088 -1.07709,-1.11209 -1.06613,-1.88746v-8.38584h-4.3v8.38584c0.01097,0.77537 -0.39641,1.49657 -1.06613,1.88746c-0.66972,0.39088 -1.49803,0.39088 -2.16775,0c-0.66972,-0.39088 -1.07709,-1.11209 -1.06613,-1.88746v-10.53584c0.00012,-1.18736 0.96264,-2.14988 2.15,-2.15z"></path></g><g><g id="Layer_1" fill="#cccccc"><path d="M139.75,135.45h12.9v4.3h-12.9v12.9h-4.3v-12.9h-12.9v-4.3h12.9v-12.9h4.3zM172,137.6c0,18.9673 -15.4327,34.4 -34.4,34.4c-18.9673,0 -34.4,-15.4327 -34.4,-34.4c0,-18.9673 15.4327,-34.4 34.4,-34.4c18.9673,0 34.4,15.4327 34.4,34.4zM167.7,137.6c0,-16.598 -13.502,-30.1 -30.1,-30.1c-16.598,0 -30.1,13.502 -30.1,30.1c0,16.598 13.502,30.1 30.1,30.1c16.598,0 30.1,-13.502 30.1,-30.1z"></path></g><g id="Layer_1" fill="#000000" opacity="0"><path d="M176.3,137.6c0,21.33875 -17.36125,38.7 -38.7,38.7c-21.33875,0 -38.7,-17.36125 -38.7,-38.7c0,-21.33875 17.36125,-38.7 38.7,-38.7c21.33875,0 38.7,17.36125 38.7,38.7z"></path></g></g></g></svg>