<svg xmlns="http://www.w3.org/2000/svg" x="0px" y="0px"
width="100" height="100"
viewBox="0 0 172 172"
style=" fill:#000000;"><g fill="none" fill-rule="nonzero" stroke="none" stroke-width="1" stroke-linecap="butt" stroke-linejoin="miter" stroke-miterlimit="10" stroke-dasharray="" stroke-dashoffset="0" font-family="none" font-weight="none" font-size="none" text-anchor="none" style="mix-blend-mode: normal"><path d="M0,172v-172h172v172z" fill="none"></path><g fill="#666666"><path d="M137.48533,107.5h-102.97067c-7.17383,0 -13.01467,5.83367 -13.01467,13.01467v16.9635c0,7.18817 5.84083,13.02183 13.01467,13.02183h102.9635c7.181,0 13.02183,-5.83367 13.02183,-13.01467v-16.9635c0,-7.18817 -5.84083,-13.02183 -13.01467,-13.02183zM50.16667,86c-5.289,0 -9.86133,2.9025 -12.34817,7.16667h24.68917c-2.47967,-4.26417 -7.052,-7.16667 -12.341,-7.16667zM78.83333,63.18133v29.98533h14.33333v-29.98533c8.3205,-2.967 14.33333,-10.85033 14.33333,-20.18133c0,-11.85367 -9.64633,-21.5 -21.5,-21.5c-11.85367,0 -21.5,9.64633 -21.5,21.5c0,9.331 6.01283,17.21433 14.33333,20.18133z"></path></g></g></svg>