<svg xmlns="http://www.w3.org/2000/svg" x="0px" y="0px"
width="100" height="100"
viewBox="0 0 172 172"
style=" fill:#000000;"><g transform="translate(25.8,25.8) scale(0.7,0.7)"><g fill="none" fill-rule="nonzero" stroke="none" stroke-width="1" stroke-linecap="butt" stroke-linejoin="miter" stroke-miterlimit="10" stroke-dasharray="" stroke-dashoffset="0" font-family="none" font-weight="none" font-size="none" text-anchor="none" style="mix-blend-mode: normal"><path d="M0,172v-172h172v172z" fill="none"></path><g fill="#666666"><path d="M32.25,19.35v133.3h107.5v-101.94023l-31.35977,-31.35977h-0.89023zM36.55,23.65h68.8v30.1h30.1v94.6h-98.9zM109.65,26.69023l22.75977,22.75977h-22.75977zM47.3,27.95c-1.18741,0 -2.15,0.96259 -2.15,2.15c0,1.18741 0.96259,2.15 2.15,2.15c1.18741,0 2.15,-0.96259 2.15,-2.15c0,-1.18741 -0.96259,-2.15 -2.15,-2.15zM47.3,36.55c-1.18741,0 -2.15,0.96259 -2.15,2.15c0,1.18741 0.96259,2.15 2.15,2.15c1.18741,0 2.15,-0.96259 2.15,-2.15c0,-1.18741 -0.96259,-2.15 -2.15,-2.15zM47.3,45.15c-1.18741,0 -2.15,0.96259 -2.15,2.15c0,1.18741 0.96259,2.15 2.15,2.15c1.18741,0 2.15,-0.96259 2.15,-2.15c0,-1.18741 -0.96259,-2.15 -2.15,-2.15zM47.3,53.75c-1.18741,0 -2.15,0.96259 -2.15,2.15c0,1.18741 0.96259,2.15 2.15,2.15c1.18741,0 2.15,-0.96259 2.15,-2.15c0,-1.18741 -0.96259,-2.15 -2.15,-2.15zM47.3,62.35c-1.18741,0 -2.15,0.96259 -2.15,2.15c0,1.18741 0.96259,2.15 2.15,2.15c1.18741,0 2.15,-0.96259 2.15,-2.15c0,-1.18741 -0.96259,-2.15 -2.15,-2.15zM47.3,70.95c-1.18741,0 -2.15,0.96259 -2.15,2.15c0,1.18741 0.96259,2.15 2.15,2.15c1.18741,0 2.15,-0.96259 2.15,-2.15c0,-1.18741 -0.96259,-2.15 -2.15,-2.15zM47.3,79.55c-1.18741,0 -2.15,0.96259 -2.15,2.15c0,1.18741 0.96259,2.15 2.15,2.15c1.18741,0 2.15,-0.96259 2.15,-2.15c0,-1.18741 -0.96259,-2.15 -2.15,-2.15zM47.3,88.15c-1.18741,0 -2.15,0.96259 -2.15,2.15c0,1.18741 0.96259,2.15 2.15,2.15c1.18741,0 2.15,-0.96259 2.15,-2.15c0,-1.18741 -0.96259,-2.15 -2.15,-2.15zM55.9,88.15v19.35h4.3v-6.45h6.45v6.45h4.3v-19.35h-4.3v8.6h-6.45v-8.6zM74.1708,88.15v4.3h5.3792v15.05h4.3v-15.05h5.30361v-4.3zM92.45,88.15v19.35h4.3v-12.16094l4.02705,10.01094h2.6959l4.02705,-10.01094v12.16094h4.3v-19.35h-5.04326l-4.51836,11.43447h-0.23936l-4.50576,-11.43447zM116.1,88.15v19.35h10.75v-4.3h-6.45v-15.05zM47.3,96.75c-1.18741,0 -2.15,0.96259 -2.15,2.15c0,1.18741 0.96259,2.15 2.15,2.15c1.18741,0 2.15,-0.96259 2.15,-2.15c0,-1.18741 -0.96259,-2.15 -2.15,-2.15zM47.3,105.35c-1.18741,0 -2.15,0.96259 -2.15,2.15c0,1.18741 0.96259,2.15 2.15,2.15c1.18741,0 2.15,-0.96259 2.15,-2.15c0,-1.18741 -0.96259,-2.15 -2.15,-2.15zM47.3,113.95c-1.18741,0 -2.15,0.96259 -2.15,2.15c0,1.18741 0.96259,2.15 2.15,2.15c1.18741,0 2.15,-0.96259 2.15,-2.15c0,-1.18741 -0.96259,-2.15 -2.15,-2.15zM47.3,122.55c-1.18741,0 -2.15,0.96259 -2.15,2.15c0,1.18741 0.96259,2.15 2.15,2.15c1.18741,0 2.15,-0.96259 2.15,-2.15c0,-1.18741 -0.96259,-2.15 -2.15,-2.15zM47.3,131.15c-1.18741,0 -2.15,0.96259 -2.15,2.15c0,1.18741 0.96259,2.15 2.15,2.15c1.18741,0 2.15,-0.96259 2.15,-2.15c0,-1.18741 -0.96259,-2.15 -2.15,-2.15zM47.3,139.75c-1.18741,0 -2.15,0.96259 -2.15,2.15c0,1.18741 0.96259,2.15 2.15,2.15c1.18741,0 2.15,-0.96259 2.15,-2.15c0,-1.18741 -0.96259,-2.15 -2.15,-2.15z"></path></g></g></g></svg>